<?xml version="1.0" encoding="UTF-8"?>
<svg id="Layer_2" data-name="Layer 2" xmlns="http://www.w3.org/2000/svg" viewBox="0 0 763.25 893.63">
  <g id="Layer_1-2" data-name="Layer 1">
    <g>
      <path d="M763.25,446.82c0,246.38-200.44,446.82-446.82,446.82v-143.73c0-43.84,27.92-82.85,69.45-96.88,86.02-29.05,148.12-110.51,148.12-206.21s-64.77-180.62-153.63-207.99c-37.91-11.68-63.94-46.48-63.94-86.15V0c246.38,0,446.82,200.44,446.82,446.82Z"/>
      <g>
        <path d="M238.05,596.37v42.4c0,50.46-41.29,91.75-91.75,91.75h-42.4c-50.46,0-91.75-41.29-91.75-91.75v-134.15c0-50.46,41.29,0,91.75,0h42.4c50.46,0,91.75,41.29,91.75,91.75Z"/>
        <ellipse cx="129.95" cy="290.95" rx="129.95" ry="127.84"/>
      </g>
    </g>
  </g>
</svg>