<?xml version="1.0" encoding="UTF-8"?>
<svg id="Layer_2" data-name="Layer 2" xmlns="http://www.w3.org/2000/svg" viewBox="0 0 1763.75 1900.64">
  <defs>
    <style>
      .cls-1 {
        fill: #e80b56;
      }
    </style>
  </defs>
  <g id="Layer_1-2" data-name="Layer 1">
    <path class="cls-1" d="m543.61,67.71C184.62,212.04-33.37,563.87,4.19,938.34c37.46,373.56,330.4,681.19,716.89,752.84q162.6,30.15,178.73,209.46c20.89-2.9,37.01-3.79,52.42-7.47,437.49-104.25,774.76-505.08,808.96-961.02C1809.88,282.74,1158.69-179.59,543.61,67.71Zm461.91,443.65c69.56-54.14,147.76-63.07,226.14-25.81,84.57,40.2,124.3,109.32,121.43,211.33l-.37,13.32h-130.23l-1.79-11.69c-10.11-66.18-25.88-99.84-83.82-99.84h-.48c-37.41.12-58.82,15.25-79.21,100.91l-2.53,10.62h-125.44l-1.4-12.18c-8.84-76.84,17.3-139.64,77.72-186.66Zm-518.06-8.26c69.69-48.17,146.78-52.77,222.91-13.36,79.47,41.14,116.33,108.89,112.67,207.13l-.49,13.2h-123.69l-3.28-9.27c-34.29-96.95-54.22-105.63-91.81-102.28-38.28,3.41-58.23,18.74-75.24,100.55l-2.28,11h-127.1l-1.06-12.58c-7.12-84.31,22.12-147.9,89.38-194.38Zm780.19,668.71c-91.88,108.32-230.43,178.08-370.62,186.61-9.18.56-18.36.83-27.55.83-119.55,0-239.33-46.83-332.41-130.78-98.63-88.95-155.46-209.62-155.93-331.06l-.12-32.05h33.24c34.56,0,69.21,0,103.91.04l24.67.03,7.03,22.8c67.17,217.61,165.83,303.77,341.39,297.37,158.31-5.78,261.22-106.03,305.87-297.96l5.8-24.95h154.66l3.94,27.58c13.46,94.3-19.89,194.29-93.89,281.54Z"/>
  </g>
</svg>