<?xml version="1.0" encoding="UTF-8"?>
<svg id="Layer_2" data-name="Layer 2" xmlns="http://www.w3.org/2000/svg" viewBox="0 0 3747.61 953.56">
  <defs>
    <style>
      .cls-1 {
        fill: #e80b56;
      }

      .cls-2 {
        fill: #1c1e3b;
      }
    </style>
  </defs>
  <g id="Layer_1-2" data-name="Layer 1">
    <g>
      <g>
        <path class="cls-2" d="m3747.31,543.24c0,58.08.76,110.59-.15,163.08-2.48,142.61-103.35,242.7-246.21,247.02-57.77,1.75-111.89-6.55-157.16-45.35-24.42-20.93-34.84-48.32-25.72-80.14,10.89-38.03,43.67-54.16,82.92-40.48,40.2,14,80.16,16.46,120.87,3.45,33.04-10.57,48.68-35.15,54.15-67.68.98-5.84,2.86-13.23-2.92-17.09-6.58-4.39-11.14,2.71-15.86,5.9-48.24,32.6-100.57,39.12-155.39,22.26-94.51-29.07-115.34-151.3-118.28-166.61-1.1-5.74-2.25-20.06-4.53-48.7-.55-6.83-6.08-80.13.74-190.01,1.8-28.96,3.38-43.97,14.72-58.02,13.63-16.89,36.29-26.49,67.14-27.82,49.8-2.15,78.35,25.32,80.06,75.87,2.3,68.15-3.57,136.51,5.07,204.5,4.03,31.73,13.49,48.37,28.44,59.46,18.84,13.98,48.38,18.04,69.96,5.27,19.35-11.44,25.18-32.19,31.65-56.62,5.49-20.71,5.83-37.98,6.02-80.83.2-43.75-.09-87.51.1-131.26.23-52.23,16.8-70.3,69.28-76.16,57.06-6.37,86.15,20.46,90.11,77.31,5.29,76.07,2.96,152.16,4.99,222.65Z"/>
        <path class="cls-2" d="m1436.81,595.5c-9.95-12.34-22.98-20.58-39.11-24.7-16.12-4.11-34.47-1.7-55.03,7.2-19.91,9.61-40.14,16.64-60.72,21.09-20.58,4.47-39.78,6.69-57.62,6.69-42.53,0-78.02-8.05-106.48-24.17s-49.91-39.78-64.31-71-21.61-69.45-21.61-114.73,7.2-83.34,21.61-114.22c14.41-30.86,35.84-54.36,64.31-70.48s63.95-24.19,106.48-24.19c21.95,0,43.05,2.58,63.28,7.72,20.23,5.16,40.64,12.53,61.23,22.12,17.83,8.92,34.3,11.16,49.39,6.69,15.09-4.45,27.44-13.2,37.03-26.23s15.59-27.77,18-44.23-.17-32.58-7.7-48.36c-7.55-15.78-20.92-28.81-40.12-39.11-26.08-14.41-56.09-25.2-90.05-32.41s-66.7-10.81-98.27-10.81c-59.69,0-113.36,8.75-161.03,26.23-47.67,17.5-88.14,42.7-121.41,75.62-33.28,32.94-58.66,72.38-76.16,118.34s-26.23,97.06-26.23,153.31c0,75.47,15.25,141.31,45.78,197.56s74.61,99.81,132.23,130.67c57.62,30.88,126.56,46.3,206.81,46.3,34.98,0,70.14-4.12,105.47-12.34s65-19.55,89.02-33.95c17.83-9.59,30.34-22.28,37.55-38.06,7.2-15.78,9.44-31.72,6.69-47.84s-9.09-30.36-19.03-42.7Z"/>
        <path class="cls-2" d="m1956.36,243.58c-29.5,0-52.14,7.72-67.92,23.16s-23.66,38.25-23.66,68.42v197.56c0,29.5-7.89,53.17-23.67,71-15.78,17.84-36.02,26.75-60.7,26.75-21.97,0-38.09-6.17-48.38-18.52s-15.42-30.86-15.42-55.56v-221.23c0-30.17-7.89-52.98-23.67-68.42s-38.42-23.16-67.91-23.16-52.14,7.72-67.92,23.16-23.66,38.25-23.66,68.42v216.09c0,49.39,7.03,90.2,21.09,122.44,14.06,32.25,35.16,56.42,63.28,72.55,28.12,16.11,64.12,24.17,108.03,24.17,37.05,0,69.12-8.92,96.22-26.75,18.93-12.46,34.92-28.78,47.99-48.94.07,24.98.14,49.97.22,74.95h177.71c-.02-144.84-.04-289.67-.06-434.51,0-30.17-7.89-52.98-23.67-68.42s-38.42-23.16-67.91-23.16Z"/>
        <path class="cls-2" d="m2656.28,48.09c-16.12-15.78-38.58-23.67-67.39-23.67s-52.14,7.89-67.92,23.67c-5.57,5.57-10.16,12.04-13.76,19.4-5.34,10.92-7.85,23.02-7.85,35.18v404.44c-.1,29.66-4.05,53.81-11.83,72.43-7.89,18.88-19.03,32.94-33.43,42.19-14.41,9.26-30.88,13.89-49.4,13.89-28.12,0-51.1-10.28-68.93-30.88-17.85-20.57-26.75-53.5-26.75-98.78,0-30.86,4.11-55.72,12.34-74.59,8.22-18.86,19.55-32.75,33.95-41.67,14.41-8.93,30.86-13.39,49.39-13.39s42.09,13.33,56.14,22.32v-120.28c-15.37-10.56-56.45-35.78-114.79-36.83-19.67-.35-67.05,1.41-114.74,31.91-33.26,21.27-59.32,51.45-78.18,90.55-18.88,39.09-28.3,86.42-28.3,141.98s9.42,101.19,28.3,140.97c18.86,39.78,44.92,70.31,78.18,91.58,33.27,21.25,71.52,31.89,114.74,31.89,39.09,0,73.9-9.44,104.44-28.3,22-13.59,38.57-30.3,49.7-50.14-.09,25.9-.18,51.8-.27,77.7h180.39c.05-31.31.11-62.61.16-93.92V117.01c0-30.17-8.06-53.14-24.19-68.92Z"/>
        <path class="cls-2" d="m2834.7,24.42h29.74c42.34,0,76.71,34.37,76.71,76.71v669.28h-183.16V101.13c0-42.34,34.37-76.71,76.71-76.71Z"/>
        <path class="cls-2" d="m3094.32,243.58h29.74c42.34,0,76.71,34.37,76.71,76.71v448.07h-183.16v-448.07c0-42.34,34.37-76.71,76.71-76.71Z"/>
        <circle class="cls-2" cx="3108.9" cy="103.44" r="99.93"/>
      </g>
      <path class="cls-1" d="m220.06,27.41C74.74,85.83-13.51,228.26,1.69,379.85c15.17,151.22,133.75,275.75,290.2,304.75q65.82,12.2,72.35,84.79c8.46-1.17,14.98-1.54,21.22-3.02,177.1-42.2,313.63-204.46,327.47-389.03C732.65,114.46,469.05-72.7,220.06,27.41Zm186.98,179.59c28.16-21.92,59.81-25.53,91.54-10.45,34.24,16.27,50.32,44.26,49.16,85.55l-.15,5.39h-52.72l-.73-4.73c-4.09-26.79-10.48-40.42-33.93-40.42h-.19c-15.14.05-23.81,6.17-32.07,40.85l-1.03,4.3h-50.78l-.57-4.93c-3.58-31.1,7-56.53,31.46-75.56Zm-209.71-3.34c28.21-19.5,59.42-21.36,90.23-5.41,32.17,16.65,47.09,44.08,45.61,83.85l-.2,5.34h-50.07l-1.33-3.75c-13.88-39.24-21.95-42.76-37.17-41.4-15.5,1.38-23.57,7.58-30.46,40.7l-.92,4.45h-51.45l-.43-5.09c-2.88-34.13,8.95-59.87,36.18-78.69Zm315.83,270.7c-37.2,43.85-93.28,72.09-150.03,75.54-3.72.23-7.43.34-11.15.34-48.4,0-96.88-18.96-134.56-52.94-39.93-36.01-62.93-84.85-63.12-134.02l-.05-12.98h13.46c13.99,0,28.02,0,42.06.02h9.99s2.85,9.24,2.85,9.24c27.19,88.09,67.13,122.97,138.2,120.38,64.08-2.34,105.74-42.92,123.82-120.62l2.35-10.1h62.61l1.59,11.17c5.45,38.17-8.05,78.65-38.01,113.97Z"/>
    </g>
  </g>
</svg>