<?xml version="1.0" encoding="UTF-8"?>
<svg id="Layer_2" data-name="Layer 2" xmlns="http://www.w3.org/2000/svg" viewBox="0 0 1743.72 567.36">
  <defs>
    <style>
      .cls-1 {
        fill: #fff;
      }
    </style>
  </defs>
  <g id="Layer_1-2" data-name="Layer 1">
    <g>
      <path class="cls-1" d="m1340.42,4.24c-22.5,9.05-36.16,31.1-33.81,54.57,2.35,23.41,20.71,42.69,44.93,47.18q10.19,1.89,11.2,13.13c1.31-.18,2.32-.24,3.29-.47,27.42-6.53,48.56-31.66,50.7-60.23,3.05-40.7-37.76-69.68-76.31-54.18Zm28.95,27.81c4.36-3.39,9.26-3.95,14.17-1.62,5.3,2.52,7.79,6.85,7.61,13.25l-.02.83h-8.16l-.11-.73c-.63-4.15-1.62-6.26-5.25-6.26h-.03c-2.34,0-3.69.96-4.96,6.32l-.16.67h-7.86l-.09-.76c-.55-4.82,1.08-8.75,4.87-11.7Zm-32.47-.52c4.37-3.02,9.2-3.31,13.97-.84,4.98,2.58,7.29,6.82,7.06,12.98l-.03.83h-7.75l-.21-.58c-2.15-6.08-3.4-6.62-5.75-6.41-2.4.21-3.65,1.17-4.72,6.3l-.14.69h-7.97l-.07-.79c-.45-5.28,1.39-9.27,5.6-12.18Zm48.9,41.91c-5.76,6.79-14.44,11.16-23.23,11.7-.58.03-1.15.05-1.73.05-7.49,0-15-2.94-20.83-8.2-6.18-5.57-9.74-13.14-9.77-20.75v-2.01s2.08,0,2.08,0c2.17,0,4.34,0,6.51,0h1.55s.44,1.43.44,1.43c4.21,13.64,10.39,19.04,21.4,18.64,9.92-.36,16.37-6.65,19.17-18.67l.36-1.56h9.69l.25,1.73c.84,5.91-1.25,12.18-5.88,17.65Z"/>
      <path class="cls-1" d="m1743.54,321.94c0,34.74.46,66.15-.09,97.54-1.48,85.3-61.82,145.17-147.26,147.75-34.56,1.04-66.93-3.92-94-27.12-14.61-12.52-20.84-28.9-15.38-47.93,6.52-22.75,26.12-32.39,49.6-24.21,24.05,8.38,47.95,9.85,72.29,2.06,19.76-6.32,29.11-21.02,32.39-40.48.59-3.49,1.71-7.91-1.75-10.22-3.94-2.63-6.66,1.62-9.49,3.53-28.85,19.5-60.15,23.4-92.94,13.31-56.53-17.39-68.99-90.5-70.75-99.65-.66-3.43-1.34-12-2.71-29.13-.33-4.08-3.64-47.93.44-113.65,1.07-17.32,2.02-26.3,8.8-34.71,8.15-10.11,21.71-15.85,40.16-16.64,29.79-1.28,46.86,15.15,47.89,45.38,1.38,40.76-2.14,81.65,3.03,122.32,2.41,18.98,8.07,28.93,17.01,35.57,11.27,8.36,28.93,10.79,41.85,3.15,11.57-6.84,15.06-19.25,18.93-33.87,3.28-12.39,3.49-22.72,3.6-48.34.12-26.17-.05-52.34.06-78.51.14-31.24,10.05-42.05,41.44-45.55,34.13-3.81,51.53,12.24,53.9,46.24,3.17,45.5,1.77,91.01,2.99,133.17Z"/>
      <path class="cls-1" d="m361.57,353.2c-5.95-7.38-13.75-12.31-23.39-14.78-9.64-2.46-20.62-1.02-32.92,4.31-11.91,5.75-24.01,9.95-36.32,12.62-12.31,2.67-23.79,4-34.47,4-25.44,0-46.66-4.81-63.69-14.46-17.03-9.64-29.85-23.79-38.47-42.47-8.62-18.67-12.93-41.54-12.93-68.63s4.31-49.85,12.93-68.32c8.62-18.46,21.44-32.51,38.47-42.16,17.03-9.64,38.25-14.47,63.69-14.47,13.13,0,25.75,1.54,37.85,4.62,12.1,3.08,24.31,7.5,36.63,13.23,10.66,5.34,20.51,6.67,29.54,4,9.03-2.66,16.41-7.9,22.15-15.69,5.74-7.79,9.33-16.61,10.77-26.46,1.44-9.85-.1-19.49-4.61-28.92-4.51-9.44-12.51-17.23-24-23.39-15.6-8.62-33.55-15.07-53.86-19.38-20.31-4.31-39.9-6.47-58.77-6.47-35.7,0-67.8,5.23-96.32,15.69-28.51,10.47-52.72,25.54-72.62,45.23-19.91,19.7-35.08,43.29-45.55,70.78C5.22,169.59,0,200.15,0,233.8c0,45.14,9.12,84.52,27.38,118.17,18.26,33.64,44.63,59.7,79.09,78.16,34.47,18.47,75.7,27.69,123.7,27.69,20.92,0,41.95-2.47,63.08-7.38s38.88-11.69,53.24-20.31c10.66-5.74,18.15-13.33,22.46-22.77,4.31-9.44,5.64-18.97,4-28.62s-5.44-18.16-11.38-25.54Z"/>
      <path class="cls-1" d="m672.33,142.71c-17.64,0-31.19,4.62-40.63,13.85-9.44,9.23-14.15,22.88-14.15,40.92v118.17c0,17.64-4.72,31.8-14.16,42.47-9.44,10.67-21.54,16-36.31,16-13.14,0-22.78-3.69-28.93-11.07-6.15-7.38-9.22-18.46-9.22-33.23v-132.33c0-18.05-4.72-31.69-14.16-40.92-9.44-9.23-22.98-13.85-40.62-13.85s-31.19,4.62-40.63,13.85c-9.44,9.23-14.15,22.88-14.15,40.92v129.25c0,29.54,4.21,53.95,12.62,73.23,8.41,19.29,21.03,33.75,37.85,43.39,16.82,9.64,38.35,14.46,64.62,14.46,22.16,0,41.35-5.34,57.55-16,11.32-7.45,20.89-17.21,28.71-29.27.04,14.94.09,29.89.13,44.83h106.29c-.01-86.63-.02-173.26-.03-259.89,0-18.05-4.72-31.69-14.16-40.92-9.44-9.23-22.98-13.85-40.62-13.85Z"/>
      <path class="cls-1" d="m1090.97,25.78c-9.64-9.44-23.08-14.16-40.31-14.16s-31.19,4.72-40.62,14.16c-3.33,3.33-6.07,7.2-8.23,11.6-3.2,6.53-4.7,13.77-4.7,21.04v241.91c-.06,17.74-2.42,32.18-7.08,43.32-4.72,11.29-11.38,19.7-20,25.23-8.62,5.54-18.47,8.31-29.55,8.31-16.82,0-30.56-6.15-41.23-18.47-10.68-12.3-16-32-16-59.08,0-18.46,2.46-33.33,7.38-44.61,4.92-11.28,11.69-19.59,20.31-24.92,8.62-5.34,18.46-8.01,29.54-8.01s25.18,7.97,33.58,13.35v-71.94c-9.19-6.32-33.76-21.4-68.66-22.03-11.77-.21-40.1.84-68.63,19.09-19.89,12.72-35.48,30.77-46.76,54.16-11.29,23.38-16.93,51.69-16.93,84.92s5.63,60.52,16.93,84.32c11.28,23.79,26.87,42.05,46.76,54.78,19.9,12.71,42.78,19.07,68.63,19.07,23.38,0,44.2-5.65,62.47-16.93,13.16-8.13,23.07-18.12,29.73-29.99-.05,15.49-.11,30.98-.16,46.47h107.9c.03-18.73.07-37.45.1-56.18V67.01c0-18.05-4.82-31.78-14.47-41.22Z"/>
      <path class="cls-1" d="m1206.58,11.62h0c30.23,0,54.77,24.54,54.77,54.77v391.41h-109.55V66.4c0-30.23,24.54-54.77,54.77-54.77Z"/>
      <path class="cls-1" d="m1361.86,142.71h0c30.23,0,54.77,24.54,54.77,54.77v259.11h-109.55V197.48c0-30.23,24.54-54.77,54.77-54.77Z"/>
    </g>
  </g>
</svg>